<svg xmlns="http://www.w3.org/2000/svg" fill="currentColor" xmlns:xlink="http://www.w3.org/1999/xlink" xml:space="preserve" version="1.1" style="shape-rendering:geometricPrecision;text-rendering:geometricPrecision;image-rendering:optimizeQuality;" viewBox="-16.650000000000002 -33.300000000000004 366.3 449.55" x="0px" y="0px" fill-rule="evenodd" clip-rule="evenodd"><defs><style type="text/css">
   
   
  </style></defs><g><path class="fil0" d="M190 34c0,-7 -6,-13 -13,-13l-21 0c-7,0 -12,6 -12,13 15,-11 30,-11 46,0zm-23 108c24,0 49,46 49,68 0,27 -22,49 -49,49 -27,0 -49,-22 -49,-49 0,-22 25,-68 49,-68zm-90 81c0,49 40,89 90,89 49,0 89,-40 89,-89 0,-39 -37,-189 -89,-189 -52,0 -90,150 -90,189z"/></g></svg>