<svg xmlns="http://www.w3.org/2000/svg" version="1.1" viewBox="-5.0 -10.0 110.0 135.0">
 <path d="m47.055 76.875h-31.43c-5.1797 0-9.375-4.1992-9.375-9.375v-51.562c0-5.1758 4.1953-9.375 9.375-9.375h51.562c5.1797 0 9.375 4.1992 9.375 9.375v31.43c-1.0273-0.11719-2.0664-0.17969-3.125-0.17969-14.66 0-26.562 11.902-26.562 26.562 0 1.0586 0.058594 2.0977 0.17969 3.125zm5.2891-56.25v7.6562c0 1.7266-1.4023 3.125-3.125 3.125h-15.625c-1.7266 0-3.125-1.3984-3.125-3.125v-7.6562c0-1.7266-1.3984-3.125-3.125-3.125-1.7227 0-3.125 1.3984-3.125 3.125v7.6562c0 5.1758 4.1992 9.375 9.375 9.375h15.625c5.1758 0 9.375-4.1992 9.375-9.375v-7.6562c0-1.7266-1.4023-3.125-3.125-3.125-1.7266 0-3.125 1.3984-3.125 3.125zm35.457 38.762c7.9258 7.9258 7.9258 20.801 0 28.727-7.9297 7.9258-20.801 7.9258-28.727 0s-7.9258-20.801 0-28.727 20.797-7.9258 28.727 0zm-17.301 11.43h-3.125c-1.7227 0-3.125 1.3984-3.125 3.1211 0 1.7266 1.4023 3.1289 3.125 3.1289h3.125v3.125c0 1.7227 1.4023 3.1211 3.1289 3.1211 1.7227 0 3.1211-1.3984 3.1211-3.1211v-3.125h3.125c1.7266 0 3.125-1.4023 3.125-3.1289 0-1.7227-1.3984-3.1211-3.125-3.1211h-3.125v-3.1289c0-1.7227-1.3984-3.1211-3.1211-3.1211-1.7266 0-3.1289 1.3984-3.1289 3.1211z" fill-rule="evenodd"/>
</svg>