<svg xmlns="http://www.w3.org/2000/svg" xmlns:xlink="http://www.w3.org/1999/xlink" version="1.1" x="0px" y="0px" viewBox="0 0 100 125" enable-background="new 0 0 100 100" xml:space="preserve"><g><path d="M91.238,26.822c0,0-18.183-17.031-41.4-17.031c-23.216,0-41.4,17.031-41.4,17.031c-4.276,4.003-2.982,7.28,2.876,7.28   h77.047C94.22,34.103,95.514,30.826,91.238,26.822z M25.482,21.669c-0.491,0-0.89-0.398-0.89-0.891c0-0.492,0.399-0.89,0.89-0.89   c0.493,0,0.891,0.398,0.891,0.89C26.373,21.271,25.975,21.669,25.482,21.669z M31.91,21.669c-0.961,0-1.74-0.779-1.74-1.74   c0-0.96,0.779-1.74,1.74-1.74s1.74,0.78,1.74,1.74C33.65,20.89,32.871,21.669,31.91,21.669z M37.975,14.187   c0.493,0,0.891,0.399,0.891,0.891c0,0.492-0.398,0.891-0.891,0.891c-0.491,0-0.891-0.399-0.891-0.891   C37.084,14.585,37.484,14.187,37.975,14.187z M38.866,22.518c-0.961,0-1.74-0.778-1.74-1.74c0-0.961,0.779-1.74,1.74-1.74   s1.74,0.779,1.74,1.74C40.606,21.739,39.827,22.518,38.866,22.518z M42.985,15.969c0-0.962,0.779-1.741,1.741-1.741   c0.959,0,1.74,0.779,1.74,1.741c0,0.96-0.78,1.739-1.74,1.739C43.764,17.708,42.985,16.929,42.985,15.969z M46.465,22.559   c-0.493,0-0.892-0.397-0.892-0.89c0-0.492,0.399-0.891,0.892-0.891c0.491,0,0.891,0.399,0.891,0.891   C47.356,22.162,46.957,22.559,46.465,22.559z M51.607,12.84c0.492,0,0.89,0.398,0.89,0.891c0,0.492-0.397,0.891-0.89,0.891   s-0.891-0.399-0.891-0.891C50.716,13.239,51.115,12.84,51.607,12.84z M51.607,25.871c-0.492,0-0.891-0.397-0.891-0.89   c0-0.492,0.399-0.891,0.891-0.891s0.89,0.398,0.89,0.891C52.497,25.474,52.1,25.871,51.607,25.871z M53.347,20.778   c-0.962,0-1.739-0.779-1.739-1.74c0-0.96,0.777-1.74,1.739-1.74c0.961,0,1.74,0.78,1.74,1.74   C55.087,19.999,54.308,20.778,53.347,20.778z M57.381,24.341c-0.492,0-0.89-0.4-0.89-0.891c0-0.492,0.397-0.891,0.89-0.891   s0.892,0.399,0.892,0.891C58.272,23.941,57.873,24.341,57.381,24.341z M57.717,16.424c-0.743,0-1.346-0.603-1.346-1.347   s0.603-1.347,1.346-1.347c0.745,0,1.347,0.603,1.347,1.347S58.462,16.424,57.717,16.424z M64.814,19.929   c-0.96,0-1.739-0.778-1.739-1.74c0-0.96,0.779-1.739,1.739-1.739c0.961,0,1.739,0.779,1.739,1.739   C66.554,19.15,65.775,19.929,64.814,19.929z M67.933,23.45c-0.491,0-0.891-0.399-0.891-0.891c0-0.491,0.399-0.89,0.891-0.89   c0.492,0,0.891,0.399,0.891,0.89C68.823,23.051,68.425,23.45,67.933,23.45z M73.484,22.124c-0.743,0-1.348-0.602-1.348-1.346   c0-0.743,0.604-1.346,1.348-1.346s1.348,0.603,1.348,1.346C74.832,21.522,74.228,22.124,73.484,22.124z"/><path d="M94.314,41.944c0,1.313-1.064,2.377-2.378,2.377H7.704c-1.314,0-2.378-1.064-2.378-2.377l0,0   c0-1.313,1.064-2.378,2.378-2.378h84.232C93.25,39.565,94.314,40.63,94.314,41.944L94.314,41.944z"/><path d="M87.703,48.554c-7.562,0.019-14.179,8.541-14.179,8.541c-5.164-2.852-29.4-8.541-29.4-8.541H11.937   c-3.651,0-6.611,2.96-6.611,6.613v0.344c0,3.653,2.96,6.613,6.611,6.613h75.766c3.651,0,6.611-2.96,6.611-6.613v-0.344   C94.314,51.514,91.354,48.554,87.703,48.554z"/><g><path d="M7.595,70.57c2.107,2.605,5.151,3.616,8.431,3.37c3.263-0.246,6.643-2.242,9.84-1.262    c1.793,0.547,3.524,0.721,5.385,0.472c2.015-0.272,3.877-1.408,5.879-1.538c1.806-0.12,3.981,1.524,5.656,2.104    c1.901,0.655,4.038,0.385,5.96,0.006c3.739-0.739,6.502-2.577,10.421-1.582c4.002,1.017,7.285,1.896,11.394,0.724    c1.724-0.492,3.516-1.351,5.338-0.918c1.521,0.36,2.879,1.445,4.398,1.903c1.802,0.544,3.643,0.071,5.306-0.651    c1.534-0.665,3.198-1.941,4.794-0.948c3.2,1.998,6.125-3.049,2.944-5.032c-3.469-2.167-6.664-0.898-10.059,0.677    c-1.351,0.628-2.225,0.067-3.45-0.567c-1.67-0.866-3.313-1.322-5.198-1.326c-3.69-0.009-6.753,2.299-10.499,1.478    C60.131,66.6,56.9,65.396,52.747,66.38c-1.646,0.391-3.226,1.068-4.849,1.542c-2.108,0.615-3.694,0.213-5.629-0.703    c-1.89-0.892-3.747-1.53-5.864-1.391c-2.065,0.134-3.938,1.177-5.947,1.596c-1.715,0.358-3.418-0.596-5.078-0.862    c-1.809-0.289-3.571,0.171-5.316,0.623c-2.947,0.759-6.133,1.998-8.346-0.735C9.351,63.524,5.252,67.677,7.595,70.57L7.595,70.57z    "/></g><path d="M91.756,76.799H50.762h-2.016H7.754c-6.499,0.322,1.902,8.969,1.902,8.969c4.229,4.348,6.624,4.133,8.969,4.348   c2.003,0.186,25.75,0.044,31.129,0.008c5.38,0.036,29.128,0.178,31.132-0.008c2.344-0.215,4.738,0,8.968-4.348   C89.854,85.768,98.254,77.121,91.756,76.799z"/></g></svg>