<svg xmlns="http://www.w3.org/2000/svg" version="1.1" viewBox="-5.0 -10.0 110.0 135.0">
 <path d="m38.543 20.832c0-4.6328 2.7891-8.8125 7.0703-10.586 4.2852-1.7734 9.2109-0.79297 12.488 2.4844 3.2773 3.2773 4.2578 8.207 2.4844 12.488-1.7734 4.2812-5.9531 7.0742-10.586 7.0742-6.3281 0-11.457-5.1328-11.457-11.461zm11.457 17.711c-4.6328 0-8.8125 2.7891-10.586 7.0703-1.7734 4.2852-0.79297 9.2109 2.4844 12.488 3.2773 3.2773 8.2031 4.2578 12.488 2.4844 4.2812-1.7734 7.0703-5.9531 7.0703-10.586 0-6.3281-5.1289-11.457-11.457-11.457zm0 29.168v-0.003907c-4.6328 0-8.8125 2.793-10.586 7.0742-1.7734 4.2812-0.79297 9.2109 2.4844 12.488 3.2773 3.2773 8.2031 4.2578 12.488 2.4844 4.2812-1.7734 7.0703-5.9531 7.0703-10.586 0-6.3281-5.1289-11.461-11.457-11.461z"/>
</svg>