<svg xmlns="http://www.w3.org/2000/svg" version="1.1" viewBox="-5.0 -10.0 110.0 135.0">
 <path d="m24.93 24.504c1.1836-12.535 11.75-22.355 24.59-22.355 12.844 0 23.41 9.8203 24.59 22.355zm49.109 4.6875-0.75391 9.3047h-47.531l-0.75391-9.3047zm-42.129 13.996h35.223c-4.1562 7.1055-10.586 12.523-17.613 12.523-7.0234 0-13.457-5.4141-17.609-12.523zm-7.6523 13.273c2.4609-0.35938 13.438-0.21094 13.438-0.21094 3.6094 0 5.668 2.3047 7.1992 5.3516 0.79297 1.5703 1.4336 3.3516 2.3594 4.7266 0.53906 0.80078 1.1797 1.457 2.2656 1.457 1.1484 0 1.8828-0.69531 2.5078-1.5391 1.0078-1.3633 1.7383-3.1211 2.5547-4.6797 1.6133-3.0703 3.6602-5.3164 6.7695-5.3164h5.5977c2.7148 0 5.375-0.14844 7.8359 0.21094 2.875 0.41797 5.5039 1.4766 7.7461 3.9258 4.0586 4.4297 6.3516 8.0898 6.3516 14.355v9.7812c0 6.3906-5.1797 11.57-11.57 11.57h-55.582c-6.3906 0-11.57-5.1797-11.57-11.57v-9.7812c0-6.2656 2.293-9.9258 6.3555-14.355 2.2422-2.4453 4.8672-3.5078 7.7422-3.9258z" fill-rule="evenodd"/>
</svg>