<svg xmlns="http://www.w3.org/2000/svg" version="1.1" viewBox="-5.0 -10.0 110.0 135.0">
 <path d="m87.602 4.3008c-0.10156-0.60156-0.30078-1.1992-0.39844-1.8008-6 5-11.398 7.3008-15.199 8.5-7.3984 2.1992-15.199 3-22.602 5.3984-7 2.3008-13.801 5.5-19.398 10.199-11.105 9.3008-17.305 24.102-13.504 38.402 0.10156 0.39844 0.19922 0.89844 0.39844 1.3008 0.89844 2.8984 2 5.1016 2.8984 6.6992-1.6992 3-3.5 6.3984-5.1992 10-1.6992 3.5-3.1016 6.8984-4.1992 10.102-0.5 1.3008-0.19922 2.6992 0.80078 3.6992 0.5 0.5 1.1992 0.80078 1.8984 0.80078 1.3008 0 2.6016-1 2.8984-2.5 0.69922-3.5 2-8.3008 4.1992-13.699 1.6016-4 6-13.602 14.898-23.398 3.8008-4.1992 8.1992-7.6992 16.898-14.699 5.3984-4.3008 10-7.6992 13.301-10.102 0.30078-0.19922 0.69922-0.10156 0.80078 0.10156 0.19922 0.30078 0.10156 0.60156-0.10156 0.80078-6.4922 4.8945-15.891 12.695-24.594 21.293-2.5 2.3984-5.3008 5.3984-8.1992 9.8008-3.3984 5.1016-5.3008 9.8008-6.5 13.102 1.8984 1.1992 4.6992 2.8008 8.3008 3.8984 12.398 3.8984 25.699 0 35.301-8.3984 7.8984-6.8984 13.301-16.5 16.301-26.5 2.1016-7.1016 3.1016-14.5 3.3008-21.898 0.29688-7.2031-0.60156-14.102-2.3008-21.102z"/>
</svg>