<svg xmlns="http://www.w3.org/2000/svg" version="1.1" viewBox="-5.0 -10.0 110.0 135.0">
 <path d="m22.309 49.242 25.059 42.953c0.55859 0.96484 1.5898 1.5547 2.7031 1.5547 1.1172 0 2.1484-0.58984 2.707-1.5547l25.059-42.953c2.6719-4.5312 3.5586-9.7734 3.5586-15.375 0-16.953-14.02-30.742-31.324-30.742-17.301 0-31.32 13.789-31.32 30.742 0 5.6016 0.88672 10.844 3.5586 15.375zm27.762-30.492c-8.6445 0-15.66 7-15.66 15.625s7.0156 15.625 15.66 15.625c8.6445 0 15.664-7 15.664-15.625s-7.0195-15.625-15.664-15.625z" fill-rule="evenodd"/>
</svg>